<?xml version="1.0" standalone="no"?>
<!DOCTYPE svg PUBLIC "-//W3C//DTD SVG 20010904//EN"
 "http://www.w3.org/TR/2001/REC-SVG-20010904/DTD/svg10.dtd">
<svg version="1.0" xmlns="http://www.w3.org/2000/svg"
 width="300.000000pt" height="35.000000pt" viewBox="0 0 300.000000 35.000000"
 preserveAspectRatio="xMidYMid meet">
<metadata>
Created by potrace 1.10, written by Peter Selinger 2001-2011
</metadata>
<g transform="translate(0.000000,35.000000) scale(0.050000,-0.050000)"
fill="#000000" stroke="none">
<path d="M620 650 c0 -37 11 -50 40 -50 29 0 40 13 40 50 0 37 -11 50 -40 50
-29 0 -40 -13 -40 -50z"/>
<path d="M1280 361 c0 -328 2 -341 40 -341 37 0 40 13 40 186 0 212 27 274
117 274 91 0 103 -30 103 -254 0 -193 3 -206 40 -206 37 0 40 13 40 210 0 183
-5 215 -40 250 -43 43 -166 54 -220 20 -25 -16 -32 -1 -40 85 -8 79 -19 106
-45 111 -32 6 -35 -20 -35 -335z"/>
<path d="M2273 687 c-39 -39 -13 -667 27 -667 38 0 40 13 40 340 0 335 -10
383 -67 327z"/>
<path d="M0 351 c0 -278 5 -331 29 -331 25 0 31 50 35 283 l6 284 180 -283
c160 -251 186 -283 235 -283 l55 -1 0 330 c0 277 -5 330 -29 330 -25 0 -31
-48 -35 -271 l-6 -272 -170 267 c-156 243 -176 267 -235 272 l-65 7 0 -332z"/>
<path d="M3800 350 l0 -330 210 0 c127 0 210 8 210 20 0 12 -70 20 -170 20
l-170 0 0 310 c0 297 -2 310 -40 310 -38 0 -40 -13 -40 -330z"/>
<path d="M5560 350 c0 -317 2 -330 40 -330 22 0 40 10 40 21 0 12 20 8 44 -10
163 -113 343 62 307 300 -25 166 -180 247 -307 158 -44 -31 -44 -31 -44 80 0
98 -5 111 -40 111 -38 0 -40 -13 -40 -330z m312 88 c94 -105 33 -398 -83 -398
-98 0 -139 64 -139 216 0 204 116 299 222 182z"/>
<path d="M873 497 c-132 -77 -117 -426 21 -479 71 -27 198 -11 245 32 39 35
67 130 38 130 -9 0 -17 -9 -17 -21 0 -44 -99 -119 -158 -119 -119 0 -193 226
-119 366 60 114 209 104 259 -16 24 -58 25 -58 33 -13 19 111 -181 191 -302
120z"/>
<path d="M1810 468 c-91 -98 -86 -331 9 -417 195 -177 462 116 333 365 -62
120 -253 149 -342 52z m222 -3 c99 -66 90 -350 -13 -405 -114 -61 -212 62
-194 245 14 141 116 220 207 160z"/>
<path d="M2496 485 c-37 -44 -57 -97 -41 -113 6 -7 28 15 48 48 65 106 251 73
234 -41 -5 -34 -37 -55 -137 -91 -186 -67 -227 -142 -131 -239 58 -58 159 -65
229 -16 44 31 48 31 66 0 10 -18 40 -33 67 -33 54 0 66 29 19 47 -24 9 -30 52
-30 211 0 184 -4 202 -44 231 -63 44 -241 42 -280 -4z m223 -396 c-33 -41
-153 -59 -189 -29 -75 62 -18 158 121 207 l79 27 6 -88 c4 -49 -4 -102 -17
-117z"/>
<path d="M3025 490 c-100 -71 -40 -210 109 -250 115 -31 146 -53 146 -101 0
-108 -152 -133 -240 -39 -66 70 -80 75 -66 20 46 -175 386 -146 386 32 0 67
-64 123 -169 150 -104 26 -137 57 -128 122 11 75 152 78 211 3 56 -71 87 -45
33 28 -51 68 -208 87 -282 35z"/>
<path d="M4360 480 c-42 -42 -55 -120 -20 -120 11 0 20 13 20 29 0 50 61 91
137 91 85 0 123 -28 123 -92 0 -43 -22 -56 -179 -107 -160 -51 -196 -190 -67
-258 60 -32 149 -29 199 7 38 26 46 26 67 0 27 -32 120 -41 120 -12 0 10 -13
23 -30 29 -24 9 -30 51 -30 202 0 239 -22 271 -190 271 -83 0 -120 -10 -150
-40z m252 -350 c-21 -83 -175 -116 -218 -48 -42 67 0 133 111 175 l105 39 6
-61 c4 -33 2 -81 -4 -105z"/>
<path d="M4840 270 c0 -237 2 -250 40 -250 37 0 40 13 40 191 0 223 17 269
100 269 83 0 100 -46 100 -269 0 -178 3 -191 40 -191 37 0 40 13 40 191 0 223
17 269 100 269 83 0 100 -46 100 -269 0 -178 3 -191 40 -191 37 0 40 13 40
210 0 272 -89 362 -263 268 -30 -16 -47 -16 -63 0 -30 30 -180 28 -210 -2 -19
-19 -24 -19 -24 0 0 13 -18 24 -40 24 -38 0 -40 -13 -40 -250z"/>
<path d="M620 260 c0 -227 2 -240 40 -240 38 0 40 13 40 240 0 227 -2 240 -40
240 -38 0 -40 -13 -40 -240z"/>
</g>
</svg>
